<?xml version="1.0" encoding="UTF-8"?>
<!DOCTYPE svg PUBLIC "-//W3C//DTD SVG 1.1//EN" "http://www.w3.org/Graphics/SVG/1.1/DTD/svg11.dtd">
<!-- Creator: CorelDRAW X8 -->
<svg xmlns="http://www.w3.org/2000/svg" xml:space="preserve" width="297mm" height="420mm" version="1.1" style="shape-rendering:geometricPrecision; text-rendering:geometricPrecision; image-rendering:optimizeQuality; fill-rule:evenodd; clip-rule:evenodd"
viewBox="0 0 29700 42000"
 xmlns:xlink="http://www.w3.org/1999/xlink">
 <defs>
  <style type="text/css">
   <![CDATA[
    .fil0 {fill:#9999FF}
    .fil1 {fill:#9999FF;fill-rule:nonzero}
   ]]>
  </style>
 </defs>
 <g id="Camada_x0020_1">
  <metadata id="CorelCorpID_0Corel-Layer"/>
  <path class="fil0" d="M8582 27122l0 -11677c0,-1161 499,-2266 1370,-3034 870,-768 2029,-1125 3181,-980 -978,1109 -1517,2536 -1517,4014l0 11677 7080 0 0 -11677c0,-1478 -539,-2905 -1517,-4014 1152,-145 2311,212 3181,980 871,768 1370,1873 1370,3034l0 11677 2023 0 0 -11677c0,-2067 -1052,-3991 -2791,-5108 -1740,-1116 -3927,-1270 -5806,-409 -1879,-861 -4066,-707 -5806,409 -1739,1117 -2791,3041 -2791,5108l0 11677 2023 0zm5057 -2023l0 -9654c0,-1229 558,-2390 1517,-3158 959,768 1517,1929 1517,3158l0 9654 -3034 0z"/>
  <path class="fil1" d="M2352 29297l0 689 344 0c48,0 92,-9 134,-27 41,-18 78,-43 109,-74 31,-31 55,-67 73,-110 18,-41 27,-86 27,-133 0,-48 -9,-92 -27,-134 -18,-42 -42,-79 -73,-110 -31,-31 -68,-56 -109,-74 -42,-18 -86,-27 -134,-27l-344 0zm0 1377l-344 0 0 -1721 688 0c64,0 124,8 183,25 58,16 112,39 164,69 50,30 97,66 139,108 42,42 78,89 108,140 30,51 53,106 69,164 17,59 25,119 25,183 0,59 -8,117 -22,172 -15,56 -36,110 -64,160 -28,50 -61,97 -101,139 -40,43 -85,79 -135,111l191 450 -366 0 -150 -347 -385 2 0 345zm2437 0l-1179 0 0 -1721 1179 0 0 344 -835 0 0 345 565 0 0 344 -565 0 0 343 835 0 0 345zm1254 -688l0 -344c0,-48 -9,-92 -27,-134 -18,-42 -43,-79 -74,-110 -31,-31 -67,-56 -110,-74 -41,-18 -86,-27 -133,-27 -48,0 -92,9 -134,27 -42,18 -79,43 -110,74 -31,31 -56,68 -74,110 -18,42 -27,86 -27,134l0 344 689 0zm344 688l-344 0 0 -345 -689 0 0 345 -343 0 0 -1032c0,-96 18,-185 54,-268 36,-84 85,-157 147,-219 62,-63 135,-112 219,-148 83,-36 172,-54 268,-54 95,0 184,18 268,54 83,36 157,85 219,148 62,62 111,135 147,219 36,83 54,172 54,268l0 1032zm1673 -177c-80,69 -169,122 -269,159 -99,37 -201,55 -308,55 -81,0 -160,-11 -236,-32 -75,-21 -146,-51 -212,-90 -66,-39 -126,-85 -181,-140 -54,-54 -101,-114 -140,-180 -38,-66 -68,-137 -89,-213 -22,-75 -32,-154 -32,-235 0,-82 10,-161 32,-237 21,-76 51,-147 89,-213 39,-66 86,-126 140,-180 55,-55 115,-102 181,-140 66,-39 137,-69 212,-90 76,-22 155,-32 236,-32 107,0 209,18 308,54 100,37 189,90 269,160l-182 299c-51,-54 -110,-96 -179,-125 -69,-29 -141,-44 -216,-44 -76,0 -147,15 -213,43 -67,29 -125,68 -174,117 -50,50 -89,108 -118,175 -29,66 -43,137 -43,213 0,75 14,145 43,211 29,66 68,124 118,174 49,49 107,88 174,117 66,29 137,43 213,43 75,0 147,-14 216,-43 69,-29 128,-71 179,-126l182 300zm922 177l-344 0 0 -1377 -516 0 0 -344 1376 0 0 344 -516 0 0 1377zm1285 -1205c0,-71 14,-138 41,-201 27,-62 64,-116 111,-163 47,-47 102,-84 164,-111 62,-27 129,-41 200,-41l790 0 0 344 -790 0c-24,0 -46,5 -67,14 -21,8 -39,20 -55,36 -15,16 -27,34 -36,54 -9,21 -14,44 -14,68 0,24 5,46 14,68 9,21 21,39 36,55 16,16 34,28 55,36 21,9 43,14 67,14l345 0c71,0 138,13 201,40 62,27 117,64 164,110 47,47 83,102 110,164 27,64 41,130 41,202 0,71 -14,138 -41,200 -27,63 -63,117 -110,164 -47,47 -102,84 -164,111 -63,27 -130,41 -201,41l-765 0 0 -345 765 0c24,0 46,-4 67,-13 21,-9 39,-21 55,-36 15,-16 27,-34 36,-55 9,-21 13,-43 13,-67 0,-24 -4,-47 -13,-68 -9,-20 -21,-38 -36,-54 -16,-16 -34,-28 -55,-37 -21,-9 -43,-13 -67,-13l-345 0c-71,0 -138,-14 -200,-41 -62,-27 -117,-64 -164,-111 -47,-47 -84,-101 -111,-164 -27,-63 -41,-130 -41,-201zm2300 1205l-343 0 0 -1377 -517 0 0 -344 1376 0 0 344 -516 0 0 1377zm1660 -688l0 -344c0,-48 -9,-92 -27,-134 -18,-42 -43,-79 -74,-110 -31,-31 -67,-56 -110,-74 -41,-18 -86,-27 -133,-27 -48,0 -92,9 -134,27 -42,18 -79,43 -110,74 -31,31 -56,68 -74,110 -18,42 -27,86 -27,134l0 344 689 0zm344 688l-344 0 0 -345 -689 0 0 345 -343 0 0 -1032c0,-96 18,-185 54,-268 36,-84 85,-157 147,-219 62,-63 135,-112 219,-148 83,-36 172,-54 268,-54 95,0 184,18 268,54 83,36 157,85 219,148 62,62 111,135 147,219 36,83 54,172 54,268l0 1032zm970 0l-343 0 0 -1377 -517 0 0 -344 1376 0 0 344 -516 0 0 1377zm1878 0l-1179 0 0 -1721 1179 0 0 344 -835 0 0 345 565 0 0 344 -565 0 0 343 835 0 0 345zm2637 0l-344 0 0 -1229c0,-24 -4,-46 -13,-67 -9,-21 -22,-39 -38,-55 -15,-15 -33,-28 -54,-37 -21,-8 -44,-13 -67,-13 -25,0 -47,5 -68,13 -20,9 -38,22 -54,37 -16,16 -28,34 -37,55 -8,21 -13,43 -13,67l0 1229 -344 0 0 -1229c0,-24 -5,-46 -14,-67 -9,-21 -20,-39 -36,-55 -16,-15 -34,-28 -55,-37 -21,-8 -43,-13 -67,-13 -24,0 -46,5 -67,13 -21,9 -39,22 -55,37 -15,16 -28,34 -37,55 -8,21 -13,43 -13,67l0 1229 -344 0 0 -1229c0,-71 13,-138 40,-201 27,-63 64,-118 111,-164 46,-47 101,-84 164,-111 63,-27 130,-40 201,-40 64,0 126,11 185,34 59,23 112,56 159,99 47,-43 101,-76 159,-99 59,-23 121,-34 185,-34 71,0 138,13 201,40 62,27 117,64 164,111 47,46 84,101 110,164 27,63 41,130 41,201l0 1229zm1664 -688c0,95 -18,185 -54,268 -36,84 -85,157 -148,219 -62,62 -135,111 -219,147 -83,36 -173,54 -268,54 -95,0 -184,-18 -268,-54 -84,-36 -156,-85 -218,-147 -63,-62 -111,-135 -147,-219 -36,-83 -54,-173 -54,-268l0 -1033 343 0 0 1033c0,47 9,92 27,133 18,42 42,78 74,109 31,32 67,56 109,74 42,18 87,27 134,27 47,0 92,-9 134,-27 42,-18 78,-42 110,-74 31,-31 55,-67 73,-109 18,-41 27,-86 27,-133l0 -1033 345 0 0 1033zm198 -517c0,-71 14,-138 41,-201 27,-62 64,-116 111,-163 46,-47 101,-84 163,-111 63,-27 130,-41 201,-41l789 0 0 344 -789 0c-24,0 -47,5 -67,14 -21,8 -39,20 -55,36 -15,16 -28,34 -36,54 -9,21 -14,44 -14,68 0,24 5,46 14,68 8,21 21,39 36,55 16,16 34,28 55,36 20,9 43,14 67,14l344 0c71,0 139,13 201,40 63,27 118,64 165,110 46,47 83,102 110,164 27,64 40,130 40,202 0,71 -13,138 -40,200 -27,63 -64,117 -110,164 -47,47 -102,84 -165,111 -62,27 -130,41 -201,41l-764 0 0 -345 764 0c24,0 46,-4 67,-13 21,-9 39,-21 55,-36 16,-16 28,-34 37,-55 8,-21 13,-43 13,-67 0,-24 -5,-47 -13,-68 -9,-20 -21,-38 -37,-54 -16,-16 -34,-28 -55,-37 -21,-9 -43,-13 -67,-13l-344 0c-71,0 -138,-14 -201,-41 -62,-27 -117,-64 -163,-111 -47,-47 -84,-101 -111,-164 -27,-63 -41,-130 -41,-201zm2782 1205l-1180 0 0 -1721 1180 0 0 344 -836 0 0 345 565 0 0 344 -565 0 0 343 836 0 0 345zm1598 -688c0,95 -18,185 -54,268 -36,84 -85,157 -148,219 -62,62 -135,111 -219,147 -83,36 -173,54 -268,54 -95,0 -184,-18 -268,-54 -84,-36 -156,-85 -218,-147 -63,-62 -111,-135 -147,-219 -36,-83 -54,-173 -54,-268l0 -1033 343 0 0 1033c0,47 9,92 27,133 18,42 42,78 74,109 31,32 67,56 109,74 42,18 87,27 134,27 47,0 92,-9 134,-27 42,-18 78,-42 110,-74 31,-31 55,-67 73,-109 18,-41 27,-86 27,-133l0 -1033 345 0 0 1033zm2006 688l-343 0 0 -1229c0,-24 -4,-46 -14,-67 -9,-21 -22,-39 -37,-55 -16,-15 -34,-28 -55,-37 -20,-8 -43,-13 -67,-13 -24,0 -46,5 -67,13 -21,9 -39,22 -55,37 -15,16 -27,34 -36,55 -9,21 -13,43 -13,67l0 1229 -345 0 0 -1229c0,-24 -4,-46 -13,-67 -9,-21 -21,-39 -36,-55 -16,-15 -34,-28 -55,-37 -21,-8 -43,-13 -67,-13 -24,0 -47,5 -68,13 -20,9 -38,22 -54,37 -16,16 -28,34 -37,55 -9,21 -13,43 -13,67l0 1229 -344 0 0 -1229c0,-71 13,-138 40,-201 27,-63 64,-118 110,-164 47,-47 102,-84 164,-111 64,-27 130,-40 202,-40 63,0 125,11 184,34 60,23 113,56 160,99 47,-43 100,-76 159,-99 59,-23 120,-34 184,-34 72,0 138,13 201,40 63,27 118,64 165,111 46,46 83,101 110,164 27,63 40,130 40,201l0 1229z"/>
 </g>
</svg>
