<?xml version="1.0" encoding="UTF-8"?>
<!DOCTYPE svg PUBLIC "-//W3C//DTD SVG 1.1//EN" "http://www.w3.org/Graphics/SVG/1.1/DTD/svg11.dtd">
<!-- Creator: CorelDRAW X8 -->
<svg xmlns="http://www.w3.org/2000/svg" xml:space="preserve" width="297mm" height="420mm" version="1.1" style="shape-rendering:geometricPrecision; text-rendering:geometricPrecision; image-rendering:optimizeQuality; fill-rule:evenodd; clip-rule:evenodd"
viewBox="0 0 29700 42000"
 xmlns:xlink="http://www.w3.org/1999/xlink">
 <defs>
  <style type="text/css">
   <![CDATA[
    .fil0 {fill:#9999FF}
   ]]>
  </style>
 </defs>
 <g id="Camada_x0020_1">
  <metadata id="CorelCorpID_0Corel-Layer"/>
  <path class="fil0" d="M8582 27122l0 -11677c0,-1161 499,-2266 1370,-3034 870,-768 2029,-1125 3181,-980 -978,1109 -1517,2536 -1517,4014l0 11677 7080 0 0 -11677c0,-1478 -539,-2905 -1517,-4014 1152,-145 2311,212 3181,980 871,768 1370,1873 1370,3034l0 11677 2023 0 0 -11677c0,-2067 -1052,-3991 -2791,-5108 -1740,-1116 -3927,-1270 -5806,-409 -1879,-861 -4066,-707 -5806,409 -1739,1117 -2791,3041 -2791,5108l0 11677 2023 0zm5057 -2023l0 -9654c0,-1229 558,-2390 1517,-3158 959,768 1517,1929 1517,3158l0 9654 -3034 0z"/>
 </g>
</svg>
