<?xml version="1.0" encoding="UTF-8"?>
<!DOCTYPE svg PUBLIC "-//W3C//DTD SVG 1.1//EN" "http://www.w3.org/Graphics/SVG/1.1/DTD/svg11.dtd">
<!-- Creator: CorelDRAW X8 -->
<svg xmlns="http://www.w3.org/2000/svg" xml:space="preserve" width="420mm" height="84.6666mm" version="1.1" style="shape-rendering:geometricPrecision; text-rendering:geometricPrecision; image-rendering:optimizeQuality; fill-rule:evenodd; clip-rule:evenodd"
viewBox="0 0 42000 8467"
 xmlns:xlink="http://www.w3.org/1999/xlink">
 <defs>
  <style type="text/css">
   <![CDATA[
    .fil0 {fill:#9999FF}
    .fil1 {fill:#9999FF;fill-rule:nonzero}
   ]]>
  </style>
 </defs>
 <g id="Camada_x0020_1">
  <metadata id="CorelCorpID_0Corel-Layer"/>
  <path class="fil0" d="M4292 7470l0 -3504c0,-349 149,-680 411,-911 261,-230 609,-337 954,-294 -293,333 -455,761 -455,1205l0 3504 2125 0 0 -3504c0,-444 -162,-872 -456,-1205 346,-43 694,64 955,294 261,231 411,562 411,911l0 3504 607 0 0 -3504c0,-621 -316,-1198 -837,-1533 -522,-335 -1179,-381 -1743,-123 -563,-258 -1220,-212 -1742,123 -522,335 -837,912 -837,1533l0 3504 607 0zm1517 -607l0 -2897c0,-369 168,-718 455,-948 288,230 456,579 456,948l0 2897 -911 0z"/>
  <path class="fil1" d="M10074 5925l0 771 386 0c53,0 102,-10 149,-30 46,-21 87,-48 122,-83 35,-35 62,-76 83,-123 20,-47 30,-97 30,-150 0,-53 -10,-103 -30,-149 -21,-48 -48,-89 -83,-123 -35,-35 -76,-63 -122,-83 -47,-20 -96,-30 -149,-30l-386 0zm0 1541l-385 0 0 -1927 771 0c71,0 139,9 204,28 65,18 126,44 184,78 56,33 108,73 155,120 47,47 88,100 121,157 34,57 60,119 78,184 18,66 28,133 28,204 0,67 -9,131 -25,194 -17,62 -40,122 -71,178 -31,57 -69,109 -114,156 -45,48 -95,89 -150,124l213 504 -410 0 -168 -389 -431 3 0 386zm2729 0l-1321 0 0 -1927 1321 0 0 386 -935 0 0 385 633 0 0 386 -633 0 0 384 935 0 0 386zm1404 -770l0 -386c0,-53 -10,-103 -30,-149 -20,-48 -48,-89 -83,-123 -34,-35 -75,-63 -123,-83 -46,-20 -96,-30 -149,-30 -53,0 -103,10 -150,30 -47,20 -88,48 -123,83 -35,34 -62,75 -83,123 -20,46 -30,96 -30,149l0 386 771 0zm386 770l-386 0 0 -386 -771 0 0 386 -384 0 0 -1156c0,-106 20,-206 60,-300 41,-93 95,-176 165,-245 69,-70 151,-125 245,-165 93,-41 193,-61 300,-61 106,0 206,20 300,61 93,40 176,95 245,165 70,69 125,152 165,245 41,94 61,194 61,300l0 1156zm1873 -198c-89,77 -190,136 -301,178 -111,41 -226,62 -345,62 -91,0 -179,-12 -264,-36 -85,-24 -164,-57 -238,-101 -74,-43 -141,-95 -202,-156 -61,-61 -113,-129 -157,-203 -43,-74 -77,-153 -100,-237 -24,-85 -36,-173 -36,-265 0,-91 12,-179 36,-264 23,-85 57,-165 100,-239 44,-73 96,-141 157,-202 61,-61 128,-113 202,-156 74,-44 153,-77 238,-101 85,-24 173,-36 264,-36 119,0 234,21 345,61 111,41 212,100 301,178l-204 336c-56,-61 -123,-108 -200,-140 -77,-33 -158,-49 -242,-49 -85,0 -165,16 -239,48 -75,32 -140,76 -195,131 -56,55 -100,120 -132,195 -32,75 -48,154 -48,238 0,85 16,164 48,238 32,73 76,138 132,194 55,56 120,99 195,132 74,32 154,48 239,48 84,0 165,-17 242,-49 77,-33 144,-80 200,-141l204 336zm1032 198l-384 0 0 -1541 -579 0 0 -386 1541 0 0 386 -578 0 0 1541zm1440 -1349c0,-80 15,-155 45,-225 31,-69 72,-130 124,-183 53,-53 114,-94 184,-125 70,-30 145,-45 224,-45l885 0 0 386 -885 0c-26,0 -52,4 -75,14 -23,10 -44,24 -61,41 -17,18 -31,38 -41,61 -10,24 -15,49 -15,76 0,27 5,52 15,76 10,23 24,44 41,62 17,17 38,31 61,40 23,10 49,15 75,15l386 0c80,0 155,15 225,45 70,30 132,72 184,124 52,52 94,114 124,184 30,70 45,145 45,225 0,80 -15,155 -45,225 -30,69 -72,130 -124,183 -52,52 -114,94 -184,124 -70,31 -145,46 -225,46l-856 0 0 -386 856 0c27,0 52,-5 75,-15 24,-10 44,-23 62,-40 17,-18 30,-38 40,-62 10,-23 15,-48 15,-75 0,-27 -5,-52 -15,-75 -10,-24 -23,-44 -40,-61 -18,-18 -38,-31 -62,-41 -23,-10 -48,-15 -75,-15l-386 0c-79,0 -154,-15 -224,-46 -70,-30 -131,-72 -184,-124 -52,-53 -93,-114 -124,-184 -30,-70 -45,-146 -45,-225zm2575 1349l-384 0 0 -1541 -579 0 0 -386 1541 0 0 386 -578 0 0 1541zm1859 -770l0 -386c0,-53 -10,-103 -31,-149 -20,-48 -47,-89 -82,-123 -35,-35 -76,-63 -123,-83 -47,-20 -97,-30 -150,-30 -53,0 -103,10 -150,30 -47,20 -88,48 -123,83 -34,34 -62,75 -82,123 -20,46 -30,96 -30,149l0 386 771 0zm385 770l-385 0 0 -386 -771 0 0 386 -385 0 0 -1156c0,-106 20,-206 61,-300 40,-93 95,-176 164,-245 70,-70 151,-125 245,-165 93,-41 193,-61 300,-61 107,0 207,20 300,61 94,40 176,95 246,165 69,69 124,152 165,245 40,94 60,194 60,300l0 1156zm1086 0l-384 0 0 -1541 -579 0 0 -386 1541 0 0 386 -578 0 0 1541zm2103 0l-1321 0 0 -1927 1321 0 0 386 -935 0 0 385 633 0 0 386 -633 0 0 384 935 0 0 386zm2953 0l-385 0 0 -1376c0,-27 -5,-52 -15,-75 -10,-24 -25,-44 -42,-61 -17,-18 -38,-32 -61,-42 -23,-9 -49,-14 -75,-14 -27,0 -52,5 -75,14 -24,10 -44,24 -62,42 -17,17 -31,37 -41,61 -9,23 -14,48 -14,75l0 1376 -386 0 0 -1376c0,-27 -5,-52 -15,-75 -10,-24 -23,-44 -41,-61 -17,-18 -38,-32 -61,-42 -23,-9 -48,-14 -75,-14 -27,0 -52,5 -75,14 -24,10 -44,24 -61,42 -18,17 -32,37 -42,61 -9,23 -14,48 -14,75l0 1376 -386 0 0 -1376c0,-80 15,-155 45,-225 30,-70 71,-132 124,-184 52,-52 113,-94 184,-124 70,-30 145,-45 225,-45 71,0 141,13 207,39 66,25 126,62 178,110 53,-48 113,-85 178,-110 66,-26 135,-39 207,-39 80,0 154,15 225,45 70,30 132,72 184,124 52,52 94,114 123,184 31,70 46,145 46,225l0 1376zm1863 -770c0,107 -20,207 -60,300 -41,94 -96,175 -165,245 -70,69 -152,124 -246,164 -93,41 -193,61 -300,61 -107,0 -207,-20 -300,-61 -94,-40 -175,-95 -245,-164 -69,-70 -124,-151 -164,-245 -41,-93 -61,-193 -61,-300l0 -1157 385 0 0 1157c0,53 10,103 30,149 20,47 48,87 82,122 35,35 76,63 123,83 47,20 97,30 150,30 53,0 103,-10 150,-30 47,-20 88,-48 123,-83 35,-35 62,-75 82,-122 20,-46 31,-96 31,-149l0 -1157 385 0 0 1157zm222 -579c0,-80 15,-155 46,-225 30,-69 72,-130 124,-183 52,-53 114,-94 183,-125 70,-30 145,-45 225,-45l884 0 0 386 -884 0c-27,0 -52,4 -76,14 -23,10 -43,24 -61,41 -17,18 -31,38 -40,61 -10,24 -15,49 -15,76 0,27 5,52 15,76 9,23 23,44 40,62 18,17 38,31 61,40 24,10 49,15 76,15l385 0c80,0 155,15 226,45 70,30 131,72 184,124 52,52 93,114 123,184 30,70 45,145 45,225 0,80 -15,155 -45,225 -30,69 -71,130 -123,183 -53,52 -114,94 -184,124 -71,31 -146,46 -226,46l-855 0 0 -386 855 0c27,0 52,-5 76,-15 23,-10 43,-23 61,-40 18,-18 31,-38 41,-62 10,-23 15,-48 15,-75 0,-27 -5,-52 -15,-75 -10,-24 -23,-44 -41,-61 -18,-18 -38,-31 -61,-41 -24,-10 -49,-15 -76,-15l-385 0c-80,0 -155,-15 -225,-46 -69,-30 -131,-72 -183,-124 -52,-53 -94,-114 -124,-184 -31,-70 -46,-146 -46,-225zm3115 1349l-1321 0 0 -1927 1321 0 0 386 -936 0 0 385 633 0 0 386 -633 0 0 384 936 0 0 386zm1790 -770c0,107 -21,207 -61,300 -40,94 -95,175 -165,245 -70,69 -152,124 -245,164 -94,41 -194,61 -300,61 -107,0 -207,-20 -301,-61 -93,-40 -175,-95 -244,-164 -70,-70 -125,-151 -165,-245 -40,-93 -60,-193 -60,-300l0 -1157 384 0 0 1157c0,53 10,103 30,149 20,47 48,87 83,122 35,35 75,63 123,83 46,20 96,30 150,30 52,0 102,-10 149,-30 47,-20 88,-48 123,-83 35,-35 62,-75 83,-122 20,-46 30,-96 30,-149l0 -1157 386 0 0 1157zm2247 770l-385 0 0 -1376c0,-27 -5,-52 -15,-75 -10,-24 -25,-44 -42,-61 -18,-18 -38,-32 -61,-42 -23,-9 -49,-14 -75,-14 -27,0 -52,5 -76,14 -23,10 -43,24 -61,42 -17,17 -31,37 -41,61 -9,23 -14,48 -14,75l0 1376 -386 0 0 -1376c0,-27 -5,-52 -15,-75 -10,-24 -23,-44 -41,-61 -18,-18 -38,-32 -61,-42 -24,-9 -48,-14 -75,-14 -27,0 -52,5 -76,14 -23,10 -43,24 -61,42 -17,17 -31,37 -41,61 -10,23 -15,48 -15,75l0 1376 -385 0 0 -1376c0,-80 15,-155 45,-225 30,-70 71,-132 124,-184 52,-52 113,-94 183,-124 71,-30 146,-45 226,-45 71,0 140,13 206,39 67,25 127,62 179,110 53,-48 113,-85 178,-110 66,-26 135,-39 207,-39 80,0 154,15 225,45 70,30 132,72 184,124 52,52 93,114 123,184 30,70 46,145 46,225l0 1376z"/>
 </g>
</svg>
